#!OML:ASF F:\VICON\USERDATA\INSTALL\rory3\rory3.ASF
:FULLY-SPECIFIED
:DEGREES
175
root 0.85077 17.924 3.3068 -2.33736 0.494046 2.29384
lowerback 10.9032 -0.805028 -4.0209
upperback 0.878327 -1.49187 1.22562
thorax -5.06203 -0.636032 3.77833
lowerneck -16.5709 -2.37099 -1.57642
upperneck 22.6295 -2.75886 -0.555691
head 9.94792 -1.48006 -0.299371
rclavicle 1.19022e-014 0
rhumerus -37.8222 -21.5315 -74.3824
rradius 27.1363
rwrist 3.05777
rhand -16.4724 18.8598
rfingers 7.12502
rthumb 9.74439 -10.8948
lclavicle 1.19022e-014 0
lhumerus -23.0208 -4.54126 79.3199
lradius 32.7859
lwrist 10.9939
lhand -25.5754 27.2095
lfingers 7.12502
lthumb 0.955857 57.1871
rfemur -27.5353 6.27955 17.3689
rtibia 16.0871
rfoot -11.865 -15.2227
rtoes -3.49733
lfemur 10.0929 -2.11072 -27.3648
ltibia 16.6867
lfoot -16.4775 -1.23994
ltoes -2.17966
176
root 0.839368 17.9055 3.4792 -2.33698 0.647703 2.3503
lowerback 11.0328 -0.855156 -4.10465
upperback 0.866045 -1.57558 1.1967
thorax -5.13817 -0.673417 3.81171
lowerneck -16.7263 -2.37555 -1.38783
upperneck 22.7067 -2.79453 -0.636882
head 10.0003 -1.48957 -0.366913
rclavicle -2.85753e-015 0
rhumerus -37.956 -21.8228 -74.2706
rradius 26.8657
rwrist 3.55348
rhand -16.2877 19.8118
rfingers 7.12502
rthumb 9.92257 -9.93439
lclavicle -2.85753e-015 0
lhumerus -22.6902 -4.33273 79.1064
lradius 32.6575
lwrist 11.1418
lhand -27.4188 23.2422
lfingers 7.12502
lthumb -0.824587 53.2203
rfemur -27.3479 6.62859 17.1985
rtibia 14.9562
rfoot -12.0276 -15.2254
rtoes -4.75608
lfemur 10.7401 -2.08878 -27.358
ltibia 16.5193
lfoot -16.5372 -1.39851
ltoes -3.99715
177
root 0.823766 17.8882 3.65167 -2.19839 0.707774 2.25405
lowerback 11.0387 -0.868545 -4.09069
upperback 0.750661 -1.59148 1.23556
thorax -5.26085 -0.675737 3.84972
lowerneck -16.651 -2.41107 -1.34049
upperneck 22.7942 -2.85837 -0.642101
head 10.0166 -1.5158 -0.38505
rclavicle 2.47735e-014 -2.38542e-015
rhumerus -38.1956 -22.2541 -73.9712
rradius 26.4799
rwrist 4.07954
rhand -15.6737 21.4947
rfingers 7.12502
rthumb 10.5149 -8.22233
lclavicle 2.47735e-014 -2.38542e-015
lhumerus -22.5341 -4.61916 79.0357
lradius 32.5892
lwrist 11.1957
lhand -29.4709 21.2418
lfingers 7.12502
lthumb -2.80652 51.2031
rfemur -27.4592 6.65289 17.4174
rtibia 14.4782
rfoot -12.1162 -14.9577
rtoes -5.97666
lfemur 11.148 -2.25291 -27.1914
ltibia 16.6371
lfoot -16.7326 -1.56419
ltoes -4.95119
178
root 0.806957 17.8721 3.83465 -2.27548 0.708359 1.98669
lowerback 10.9874 -0.874301 -3.94054
upperback 0.756332 -1.57069 1.37626
thorax -5.22809 -0.668496 3.90828
lowerneck -16.3597 -2.42543 -1.5276
upperneck 22.8315 -2.85892 -0.539103
head 9.97998 -1.52088 -0.314107
rclavicle 4.47266e-015 3.18055e-015
rhumerus -38.3997 -22.6013 -73.546
rradius 26.1049
rwrist 4.70815
rhand -15.1358 21.8685
rfingers 7.12502
rthumb 11.0338 -7.82145
lclavicle 4.47266e-015 3.18055e-015
lhumerus -22.511 -4.61494 79.0354
lradius 32.7052
lwrist 11.1684
lhand -29.75 21.1833
lfingers 7.12502
lthumb -3.07604 51.1409
rfemur -27.382 6.20967 18.119
rtibia 14.5755
rfoot -12.1324 -14.1522
rtoes -5.9894
lfemur 11.7575 -2.50408 -26.89
ltibia 16.9602
lfoot -16.8911 -1.66106
ltoes -5.56228
179
root 0.793435 17.8533 4.02038 -2.47329 0.597684 1.76147
lowerback 11.1013 -0.87779 -3.79068
upperback 0.803147 -1.55467 1.47864
thorax -5.24498 -0.663304 3.93154
lowerneck -16.2831 -2.34749 -1.67303
upperneck 22.9591 -2.75648 -0.36504
head 10.0159 -1.46614 -0.21535
rclavicle 9.51682e-015 -1.19271e-014
rhumerus -38.4482 -22.7798 -73.3546
rradius 25.7644
rwrist 5.21242
rhand -15.1365 21.2531
rfingers 7.12502
rthumb 11.0331 -8.43691
lclavicle 9.51682e-015 -1.19271e-014
lhumerus -22.6515 -4.55311 79.0285
lradius 32.9272
lwrist 10.9497
lhand -29.7167 22.4746
lfingers 7.12502
lthumb -3.0439 52.4326
rfemur -27.223 5.34833 18.9968
rtibia 15.0578
rfoot -11.2155 -12.6428
rtoes -4.55692
lfemur 12.4097 -2.76482 -26.7132
ltibia 17.4881
lfoot -16.944 -1.60604
ltoes -5.92696
180
root 0.781434 17.8379 4.19701 -2.58962 0.548844 1.83826
lowerback 11.2468 -0.901302 -3.94889
upperback 0.941103 -1.60727 1.51569
thorax -5.17049 -0.689724 4.06995
lowerneck -16.5856 -2.26596 -1.6555
upperneck 22.9105 -2.63215 -0.395432
head 10.0543 -1.41004 -0.215805
rclavicle -4.47266e-015 2.10712e-014
rhumerus -38.2964 -22.4999 -73.5848
rradius 25.917
rwrist 5.18236
rhand -15.3861 20.6137
rfingers 7.12502
rthumb 10.7924 -9.08908
lclavicle -4.47266e-015 2.10712e-014
lhumerus -22.5435 -4.36288 79.0335
lradius 33.1707
lwrist 10.4542
lhand -30.2221 23.0324
lfingers 7.12502
lthumb -3.53195 52.9829
rfemur -27.2215 4.20926 19.6104
rtibia 15.7917
rfoot -9.6953 -10.6985
rtoes -2.44666
lfemur 12.8354 -2.99404 -26.8739
ltibia 18.2197
lfoot -17.0016 -1.34653
ltoes -8.04199
181
root 0.765334 17.8246 4.37328 -2.68051 0.372165 1.70002
lowerback 11.3278 -0.843177 -3.86503
upperback 1.08105 -1.51796 1.56929
thorax -5.07761 -0.652012 4.06514
lowerneck -16.7376 -2.32819 -1.59989
upperneck 22.6965 -2.70919 -0.478796
head 10.0047 -1.4499 -0.264777
rclavicle 2.33572e-015 -2.78299e-015
rhumerus -38.257 -22.267 -73.8087
rradius 26.2118
rwrist 4.97181
rhand -15.248 20.6457
rfingers 7.12502
rthumb 10.9255 -9.05006
lclavicle 2.33572e-015 -2.78299e-015
lhumerus -22.1885 -4.19616 78.94
lradius 33.1744
lwrist 10.3882
lhand -30.0877 22.6283
lfingers 7.12502
lthumb -3.40213 52.5809
rfemur -27.2909 3.37665 20.4513
rtibia 16.7926
rfoot -9.10964 -9.91195
rtoes -3.99309
lfemur 13.2528 -3.09648 -26.7853
ltibia 18.9872
lfoot -17.0693 -0.895371
ltoes -10.6775
182
root 0.741526 17.8132 4.55297 -2.71433 0.214551 1.21318
lowerback 11.4801 -0.754394 -3.50718
upperback 1.0284 -1.35103 1.73542
thorax -5.23853 -0.570591 4.01787
lowerneck -16.6505 -2.41014 -1.57096
upperneck 22.6805 -2.81548 -0.551097
head 9.98139 -1.50511 -0.307874
rclavicle 6.55989e-015 -1.98785e-014
rhumerus -38.4887 -22.6592 -73.5104
rradius 25.9949
rwrist 5.34392
rhand -15.0794 21.191
rfingers 7.12502
rthumb 11.0882 -8.49609
lclavicle 6.55989e-015 -1.98785e-014
lhumerus -21.9861 -4.0272 78.9054
lradius 32.925
lwrist 10.2858
lhand -30.0502 22.0132
lfingers 7.12502
lthumb -3.36596 51.9664
rfemur -27.4057 3.03773 21.5142
rtibia 18.0397
rfoot -8.73818 -9.56971
rtoes -2.95963
lfemur 13.5567 -3.28903 -26.2744
ltibia 19.727
lfoot -16.8291 -0.684036
ltoes -12.169
183
root 0.724361 17.8045 4.74311 -2.82401 0.515266 1.08169
lowerback 11.7139 -0.84981 -3.46303
upperback 0.938325 -1.47433 1.82664
thorax -5.45113 -0.624257 4.11762
lowerneck -16.6327 -2.34775 -1.54495
upperneck 22.7762 -2.72318 -0.601719
head 10.0106 -1.46645 -0.318242
rclavicle 2.28105e-014 3.97569e-016
rhumerus -38.6737 -22.9019 -73.2207
rradius 25.7426
rwrist 5.90967
rhand -15.1465 21.1516
rfingers 7.12502
rthumb 11.0235 -8.53899
lclavicle 2.28105e-014 3.97569e-016
lhumerus -22.1011 -3.93677 78.9883
lradius 32.8319
lwrist 10.1872
lhand -30.8414 20.5437
lfingers 7.12502
lthumb -4.13001 50.4834
rfemur -27.3246 2.59389 22.0032
rtibia 19.416
rfoot -8.57484 -9.52852
rtoes -1.81955
lfemur 13.7592 -3.7782 -26.1424
ltibia 20.5646
lfoot -16.3933 -1.12209
ltoes -12.0271
